<mxfile host="app.diagrams.net" modified="2022-11-08T10:20:29.785Z" agent="5.0 (Windows NT 10.0; Win64; x64) AppleWebKit/537.36 (KHTML, like Gecko) Chrome/107.0.0.0 Safari/537.36" etag="hwWdHHweK2aXRVFn8viw" version="20.5.3" type="github">
  <diagram id="sKfSUQLC1d7SBql6pgRt" name="第 1 页">
    <mxGraphModel dx="1040" dy="612" grid="1" gridSize="10" guides="1" tooltips="1" connect="1" arrows="1" fold="1" page="1" pageScale="1" pageWidth="827" pageHeight="1169" math="0" shadow="0">
      <root>
        <mxCell id="0" />
        <mxCell id="1" parent="0" />
        <mxCell id="z572HGJisBZi_6Hy0Jiy-3" value="action" style="edgeStyle=orthogonalEdgeStyle;rounded=0;orthogonalLoop=1;jettySize=auto;html=1;entryX=0.5;entryY=0;entryDx=0;entryDy=0;exitX=1;exitY=0.5;exitDx=0;exitDy=0;" edge="1" parent="1" source="z572HGJisBZi_6Hy0Jiy-4" target="z572HGJisBZi_6Hy0Jiy-2">
          <mxGeometry x="-0.1667" relative="1" as="geometry">
            <mxPoint x="370" y="210" as="sourcePoint" />
            <mxPoint x="410" y="290" as="targetPoint" />
            <Array as="points">
              <mxPoint x="414" y="240" />
            </Array>
            <mxPoint as="offset" />
          </mxGeometry>
        </mxCell>
        <mxCell id="z572HGJisBZi_6Hy0Jiy-5" value="choose action in policy" style="edgeStyle=orthogonalEdgeStyle;rounded=0;orthogonalLoop=1;jettySize=auto;html=1;" edge="1" parent="1" source="z572HGJisBZi_6Hy0Jiy-1" target="z572HGJisBZi_6Hy0Jiy-4">
          <mxGeometry relative="1" as="geometry" />
        </mxCell>
        <mxCell id="z572HGJisBZi_6Hy0Jiy-1" value="agent" style="rounded=0;whiteSpace=wrap;html=1;" vertex="1" parent="1">
          <mxGeometry x="140" y="320" width="120" height="60" as="geometry" />
        </mxCell>
        <mxCell id="z572HGJisBZi_6Hy0Jiy-6" value="reward" style="edgeStyle=orthogonalEdgeStyle;rounded=0;orthogonalLoop=1;jettySize=auto;html=1;entryX=0.5;entryY=1;entryDx=0;entryDy=0;" edge="1" parent="1" source="z572HGJisBZi_6Hy0Jiy-7" target="z572HGJisBZi_6Hy0Jiy-1">
          <mxGeometry x="-0.1966" relative="1" as="geometry">
            <mxPoint as="offset" />
          </mxGeometry>
        </mxCell>
        <mxCell id="z572HGJisBZi_6Hy0Jiy-8" value="give reward based on state" style="edgeStyle=orthogonalEdgeStyle;rounded=0;orthogonalLoop=1;jettySize=auto;html=1;" edge="1" parent="1" source="z572HGJisBZi_6Hy0Jiy-2" target="z572HGJisBZi_6Hy0Jiy-7">
          <mxGeometry relative="1" as="geometry" />
        </mxCell>
        <mxCell id="z572HGJisBZi_6Hy0Jiy-2" value="environment" style="rounded=0;whiteSpace=wrap;html=1;" vertex="1" parent="1">
          <mxGeometry x="354" y="320" width="120" height="60" as="geometry" />
        </mxCell>
        <mxCell id="z572HGJisBZi_6Hy0Jiy-4" value="policy" style="rounded=0;whiteSpace=wrap;html=1;" vertex="1" parent="1">
          <mxGeometry x="140" y="210" width="120" height="60" as="geometry" />
        </mxCell>
        <mxCell id="z572HGJisBZi_6Hy0Jiy-7" value="state" style="rounded=0;whiteSpace=wrap;html=1;" vertex="1" parent="1">
          <mxGeometry x="354" y="430" width="120" height="60" as="geometry" />
        </mxCell>
      </root>
    </mxGraphModel>
  </diagram>
</mxfile>
